<?xml version="1.0" encoding="utf-8" ?>
<svg baseProfile="tiny" height="2000" version="1.2" width="1556" xmlns="http://www.w3.org/2000/svg" xmlns:ev="http://www.w3.org/2001/xml-events" xmlns:xlink="http://www.w3.org/1999/xlink"><defs /><rect fill="#FFFFFF" height="2000" width="1556" x="0" y="0" /><rect fill="none" height="1950" stroke="#000000" stroke-width="50" width="1506" x="25" y="25" /><path d="M 1505.00,267.50 L 50.00,267.50 L 49.50,223.00 L 1505.00,222.50 L 1505.00,267.50 Z" fill="#000000" stroke="none" /><path d="M 142.50,265.00 L 142.00,263.50 L 142.50,265.00 Z" fill="#000000" stroke="none" /><path d="M 763.00,1429.50 L 87.00,1429.50 L 81.00,1427.50 L 72.50,1420.00 L 69.50,1413.00 L 69.50,1403.00 L 76.50,1387.00 L 552.50,406.00 L 551.50,395.00 L 542.00,387.50 L 199.00,387.50 L 185.00,390.50 L 169.00,397.50 L 158.00,405.50 L 146.50,418.00 L 137.50,434.00 L 128.50,470.00 L 124.50,516.00 L 121.50,521.00 L 114.00,524.50 L 96.00,523.50 L 82.50,514.00 L 77.50,503.00 L 77.50,330.00 L 81.50,319.00 L 93.00,307.50 L 107.00,302.50 L 746.00,302.50 L 755.00,306.50 L 760.50,313.00 L 763.50,327.00 L 759.50,338.00 L 283.50,1318.00 L 279.50,1333.00 L 285.00,1341.50 L 292.00,1344.50 L 670.00,1344.50 L 685.00,1341.50 L 698.00,1336.50 L 716.00,1323.50 L 727.50,1309.00 L 733.50,1297.00 L 741.50,1266.00 L 745.50,1223.00 L 748.50,1212.00 L 757.00,1207.50 L 775.00,1208.50 L 789.50,1219.00 L 794.50,1236.00 L 794.50,1393.00 L 793.50,1403.00 L 786.50,1417.00 L 778.00,1424.50 L 763.00,1429.50 Z" fill="#000000" stroke="none" /><path d="M 1234.00,957.50 L 1042.50,957.00 L 1043.00,934.50 L 1090.50,934.00 L 1090.50,370.00 L 1015.00,370.50 L 987.00,375.50 L 962.00,384.50 L 937.00,399.50 L 913.50,423.00 L 893.50,457.00 L 883.00,485.50 L 849.00,485.50 L 849.00,346.50 L 1428.50,347.00 L 1428.00,485.50 L 1394.00,485.50 L 1383.50,458.00 L 1365.50,426.00 L 1341.00,400.50 L 1313.00,383.50 L 1290.00,375.50 L 1262.00,370.50 L 1186.50,370.00 L 1186.50,934.00 L 1234.00,934.50 L 1234.00,957.50 Z" fill="#000000" stroke="none" /><path d="M 844.00,1138.50 L 688.00,1138.50 L 685.50,1136.00 L 685.50,1125.00 L 688.00,1122.50 L 715.00,1115.50 L 721.50,1109.00 L 724.50,1101.00 L 724.50,630.00 L 720.50,621.00 L 715.00,616.50 L 686.50,608.00 L 685.50,596.00 L 690.00,592.50 L 843.00,592.50 L 847.50,596.00 L 847.50,606.00 L 844.00,609.50 L 817.00,616.50 L 808.50,629.00 L 808.50,1103.00 L 818.00,1115.50 L 845.00,1122.50 L 847.50,1126.00 L 847.50,1135.00 L 844.00,1138.50 Z" fill="#000000" stroke="none" /><path d="M 1195.00,965.50 L 1193.50,965.00 L 1195.00,965.50 Z" fill="#000000" stroke="none" /><path d="M 1324.00,1324.50 L 1324.00,1322.50 L 1324.00,1324.50 Z" fill="#000000" stroke="none" /><path d="M 1431.00,1544.50 L 102.00,1544.50 L 86.00,1538.50 L 72.50,1527.00 L 64.50,1512.00 L 62.50,1494.00 L 65.50,1481.00 L 72.50,1469.00 L 84.00,1458.50 L 102.00,1451.50 L 1431.00,1451.50 L 1449.00,1458.50 L 1460.50,1469.00 L 1466.50,1479.00 L 1470.50,1496.00 L 1468.50,1512.00 L 1460.50,1527.00 L 1447.00,1538.50 L 1431.00,1544.50 Z" fill="#000000" stroke="none" /><path d="M 1294.00,1612.50 L 1294.00,1610.50 L 1294.00,1612.50 Z" fill="#000000" stroke="none" /><path d="M 178.00,1613.50 L 178.00,1611.50 L 178.00,1613.50 Z" fill="#000000" stroke="none" /><path d="M 642.00,1657.50 L 640.50,1657.00 L 642.00,1657.50 Z" fill="#000000" stroke="none" /><path d="M 1389.00,1657.50 L 1387.50,1657.00 L 1389.00,1657.50 Z" fill="#000000" stroke="none" /><path d="M 1505.00,1776.50 L 50.00,1776.50 L 49.50,1732.00 L 1505.00,1731.50 L 1505.00,1776.50 Z" fill="#000000" stroke="none" /><path d="M 142.50,1735.00 L 142.00,1733.50 L 142.50,1735.00 Z" fill="#000000" stroke="none" /><path d="M 1162.00,1428.50 L 1123.00,1427.50 L 1078.00,1416.50 L 1039.00,1397.50 L 1010.00,1375.50 L 982.50,1345.00 L 970.50,1327.00 L 957.50,1301.00 L 941.50,1253.00 L 935.50,1211.00 L 936.50,1163.00 L 942.50,1128.00 L 945.50,1124.00 L 944.50,1120.00 L 955.50,1088.00 L 968.50,1062.00 L 987.50,1034.00 L 1014.00,1006.50 L 1037.00,989.50 L 1042.00,988.50 L 1045.00,984.50 L 1084.00,967.50 L 1091.00,967.50 L 1095.00,964.50 L 1098.00,965.50 L 1099.00,963.50 L 1113.00,960.50 L 1135.00,959.50 L 1138.00,957.50 L 1174.00,959.50 L 1220.00,971.50 L 1259.00,991.50 L 1290.00,1016.50 L 1309.50,1039.00 L 1309.50,1042.00 L 1313.50,1044.00 L 1337.50,1087.00 L 1349.50,1121.00 L 1349.50,1128.00 L 1351.50,1129.00 L 1358.50,1174.00 L 1357.50,1225.00 L 1355.50,1226.00 L 1355.50,1239.00 L 1353.50,1240.00 L 1354.50,1245.00 L 1348.50,1270.00 L 1337.50,1301.00 L 1331.50,1309.00 L 1327.50,1321.00 L 1305.50,1354.00 L 1277.00,1382.50 L 1250.00,1401.50 L 1208.00,1419.50 L 1162.00,1428.50 Z M 1159.00,1397.50 L 1135.00,1396.50 L 1112.00,1389.50 L 1092.00,1375.50 L 1075.50,1355.00 L 1059.50,1330.00 L 1045.50,1286.00 L 1043.50,1285.00 L 1041.50,1268.00 L 1039.50,1267.00 L 1035.50,1224.00 L 1033.50,1222.00 L 1033.50,1162.00 L 1035.50,1161.00 L 1036.50,1136.00 L 1038.50,1135.00 L 1037.50,1130.00 L 1039.50,1129.00 L 1045.50,1095.00 L 1058.50,1058.00 L 1084.50,1018.00 L 1099.00,1006.50 L 1100.00,1003.50 L 1120.00,992.50 L 1138.00,988.50 L 1162.00,989.50 L 1183.00,996.50 L 1199.00,1007.50 L 1219.50,1030.00 L 1233.50,1053.00 L 1240.50,1074.00 L 1243.50,1077.00 L 1244.50,1086.00 L 1247.50,1089.00 L 1255.50,1128.00 L 1257.50,1150.00 L 1259.50,1152.00 L 1259.50,1179.00 L 1261.50,1185.00 L 1257.50,1248.00 L 1253.50,1262.00 L 1253.50,1271.00 L 1251.50,1272.00 L 1247.50,1295.00 L 1245.50,1296.00 L 1234.50,1330.00 L 1216.50,1359.00 L 1199.00,1377.50 L 1182.00,1389.50 L 1167.00,1395.50 L 1160.00,1395.50 L 1159.00,1397.50 Z" fill="#DA291C" fill-rule="evenodd" stroke="none" /><path d="M 262.00,1658.50 L 253.00,1658.50 L 245.00,1655.50 L 237.50,1650.00 L 233.50,1641.00 L 233.50,1610.00 L 235.50,1609.00 L 235.50,1604.00 L 240.00,1597.50 L 254.00,1591.50 L 262.00,1591.50 L 273.00,1595.50 L 281.50,1608.00 L 281.50,1614.00 L 275.00,1615.50 L 271.00,1615.50 L 269.50,1611.00 L 261.00,1603.50 L 254.00,1602.50 L 247.50,1610.00 L 248.00,1643.50 L 254.00,1647.50 L 266.00,1645.50 L 269.00,1636.50 L 281.50,1636.00 L 281.50,1643.00 L 278.50,1649.00 L 273.00,1654.50 L 262.00,1658.50 Z" fill="#DA291C" fill-rule="evenodd" stroke="none" /><path d="M 826.00,1658.50 L 816.00,1658.50 L 807.00,1655.50 L 806.00,1652.50 L 801.50,1651.00 L 796.50,1641.00 L 796.50,1609.00 L 804.00,1597.50 L 809.00,1593.50 L 817.00,1591.50 L 832.00,1593.50 L 839.50,1599.00 L 839.50,1602.00 L 844.50,1607.00 L 843.00,1613.50 L 833.00,1614.50 L 830.50,1611.00 L 831.50,1608.00 L 824.00,1603.50 L 811.50,1606.00 L 809.50,1637.00 L 813.00,1645.50 L 825.00,1646.50 L 831.50,1640.00 L 831.00,1633.50 L 823.00,1633.50 L 819.50,1631.00 L 819.50,1624.00 L 823.00,1621.50 L 842.00,1621.50 L 844.50,1627.00 L 842.50,1647.00 L 836.00,1654.50 L 826.00,1658.50 Z" fill="#DA291C" fill-rule="evenodd" stroke="none" /><path d="M 957.00,1658.50 L 939.00,1656.50 L 933.50,1653.00 L 927.50,1644.00 L 928.00,1635.50 L 939.00,1635.50 L 941.50,1642.00 L 948.00,1647.50 L 957.00,1646.50 L 961.50,1643.00 L 961.00,1634.50 L 942.00,1628.50 L 928.50,1617.00 L 927.50,1607.00 L 930.50,1600.00 L 946.00,1591.50 L 954.00,1591.50 L 955.00,1593.50 L 959.00,1592.50 L 966.00,1595.50 L 970.50,1599.00 L 975.50,1611.00 L 974.00,1614.50 L 964.00,1614.50 L 957.00,1603.50 L 946.00,1603.50 L 941.50,1607.00 L 941.50,1612.00 L 947.00,1618.50 L 967.00,1624.50 L 975.50,1636.00 L 975.50,1643.00 L 971.50,1651.00 L 957.00,1658.50 Z" fill="#DA291C" fill-rule="evenodd" stroke="none" /><path d="M 1145.00,1658.50 L 1133.00,1658.50 L 1125.00,1655.50 L 1119.50,1651.00 L 1114.50,1641.00 L 1115.50,1607.00 L 1126.00,1594.50 L 1135.00,1591.50 L 1143.00,1591.50 L 1144.00,1593.50 L 1154.00,1595.50 L 1161.50,1604.00 L 1163.50,1610.00 L 1162.50,1644.00 L 1153.00,1655.50 L 1146.00,1656.50 L 1145.00,1658.50 Z M 1134.00,1647.50 L 1127.50,1641.00 L 1127.50,1615.00 L 1133.00,1603.50 L 1142.00,1603.50 L 1149.50,1610.00 L 1150.50,1636.00 L 1147.00,1645.50 L 1134.00,1647.50 Z" fill="#DA291C" fill-rule="evenodd" stroke="none" /><path d="M 1277.00,1658.50 L 1264.00,1658.50 L 1261.00,1655.50 L 1257.00,1655.50 L 1246.50,1642.00 L 1247.50,1606.00 L 1256.00,1595.50 L 1267.00,1591.50 L 1286.00,1595.50 L 1289.50,1602.00 L 1292.50,1603.00 L 1293.50,1611.00 L 1295.50,1612.00 L 1295.50,1639.00 L 1293.50,1646.00 L 1286.00,1654.50 L 1277.00,1658.50 Z M 1272.00,1647.50 L 1266.00,1646.50 L 1259.50,1638.00 L 1259.50,1613.00 L 1261.50,1608.00 L 1268.00,1603.50 L 1274.00,1603.50 L 1281.50,1608.00 L 1281.50,1640.00 L 1279.00,1645.50 L 1272.00,1647.50 Z" fill="#DA291C" fill-rule="evenodd" stroke="none" /><path d="M 145.00,1657.50 L 134.50,1656.00 L 134.00,1616.50 L 125.50,1628.00 L 125.50,1631.00 L 122.00,1632.50 L 117.00,1631.50 L 113.50,1624.00 L 106.50,1617.00 L 105.50,1657.00 L 94.50,1657.00 L 93.50,1596.00 L 96.00,1592.50 L 106.00,1592.50 L 120.00,1614.50 L 125.50,1610.00 L 125.50,1607.00 L 136.00,1592.50 L 148.50,1594.00 L 148.50,1656.00 L 145.00,1657.50 Z" fill="#DA291C" fill-rule="evenodd" stroke="none" /><path d="M 218.00,1657.50 L 208.00,1657.50 L 203.00,1647.50 L 180.00,1647.50 L 176.00,1657.50 L 163.50,1657.00 L 184.00,1592.50 L 200.50,1594.00 L 200.50,1599.00 L 202.50,1600.00 L 203.50,1608.00 L 205.50,1609.00 L 217.50,1646.00 L 218.00,1657.50 Z M 199.00,1636.50 L 183.50,1636.00 L 190.00,1609.50 L 192.50,1610.00 L 199.00,1636.50 Z" fill="#DA291C" fill-rule="evenodd" stroke="none" /><path d="M 339.00,1657.50 L 300.00,1657.50 L 297.50,1655.00 L 297.50,1595.00 L 301.00,1592.50 L 343.50,1594.00 L 342.00,1604.50 L 311.50,1605.00 L 312.00,1618.50 L 332.50,1620.00 L 332.50,1627.00 L 330.00,1630.50 L 311.50,1631.00 L 312.50,1647.00 L 336.00,1645.50 L 343.00,1647.50 L 343.50,1656.00 L 339.00,1657.50 Z" fill="#DA291C" fill-rule="evenodd" stroke="none" /><path d="M 400.00,1657.50 L 358.50,1656.00 L 358.50,1595.00 L 361.00,1592.50 L 372.50,1594.00 L 372.50,1645.00 L 398.00,1645.50 L 403.00,1647.50 L 404.50,1655.00 L 400.00,1657.50 Z" fill="#DA291C" fill-rule="evenodd" stroke="none" /><path d="M 463.00,1657.50 L 418.50,1656.00 L 418.50,1595.00 L 421.00,1592.50 L 431.50,1593.00 L 431.50,1644.00 L 463.00,1646.50 L 463.00,1657.50 Z" fill="#DA291C" fill-rule="evenodd" stroke="none" /><path d="M 523.00,1657.50 L 479.50,1657.00 L 480.00,1592.50 L 523.50,1593.00 L 522.00,1604.50 L 491.50,1605.00 L 491.50,1618.00 L 494.00,1620.50 L 496.00,1618.50 L 511.00,1618.50 L 513.50,1622.00 L 513.50,1628.00 L 511.00,1630.50 L 491.50,1631.00 L 492.50,1647.00 L 511.00,1645.50 L 523.00,1647.50 L 523.00,1657.50 Z" fill="#DA291C" fill-rule="evenodd" stroke="none" /><path d="M 585.00,1657.50 L 576.00,1657.50 L 571.50,1654.00 L 563.50,1632.00 L 558.00,1629.50 L 552.50,1632.00 L 552.50,1656.00 L 543.00,1657.50 L 538.50,1655.00 L 540.00,1592.50 L 571.00,1592.50 L 583.50,1600.00 L 583.50,1604.00 L 586.50,1607.00 L 586.50,1618.00 L 582.50,1625.00 L 574.50,1630.00 L 585.50,1652.00 L 585.00,1657.50 Z M 561.00,1621.50 L 552.50,1620.00 L 552.50,1605.00 L 572.00,1605.50 L 573.50,1614.00 L 571.50,1618.00 L 561.00,1621.50 Z" fill="#DA291C" fill-rule="evenodd" stroke="none" /><path d="M 615.00,1657.50 L 602.50,1656.00 L 602.50,1595.00 L 605.00,1592.50 L 615.50,1593.00 L 615.00,1657.50 Z" fill="#DA291C" fill-rule="evenodd" stroke="none" /><path d="M 687.00,1657.50 L 674.00,1657.50 L 671.00,1647.50 L 648.00,1647.50 L 645.50,1650.00 L 645.00,1656.50 L 631.50,1656.00 L 652.00,1592.50 L 668.50,1594.00 L 679.50,1628.00 L 679.50,1634.00 L 686.50,1650.00 L 687.00,1657.50 Z M 667.00,1636.50 L 651.50,1636.00 L 659.00,1609.50 L 665.50,1624.00 L 667.00,1636.50 Z" fill="#DA291C" fill-rule="evenodd" stroke="none" /><path d="M 913.00,1657.50 L 902.00,1656.50 L 899.50,1654.00 L 899.00,1647.50 L 875.00,1647.50 L 871.00,1657.50 L 859.50,1657.00 L 858.50,1652.00 L 864.50,1633.00 L 869.50,1623.00 L 875.50,1599.00 L 880.00,1592.50 L 895.50,1594.00 L 903.50,1624.00 L 912.50,1647.00 L 913.00,1657.50 Z M 891.00,1637.50 L 879.00,1636.50 L 877.50,1633.00 L 886.00,1609.50 L 891.50,1621.00 L 893.50,1633.00 L 895.50,1634.00 L 891.00,1637.50 Z" fill="#DA291C" fill-rule="evenodd" stroke="none" /><path d="M 1019.00,1657.50 L 1008.00,1657.50 L 1005.50,1655.00 L 1005.50,1607.00 L 1007.50,1606.00 L 991.00,1604.50 L 988.50,1601.00 L 991.00,1592.50 L 1037.50,1593.00 L 1036.00,1604.50 L 1022.00,1604.50 L 1021.00,1602.50 L 1019.50,1605.00 L 1019.00,1657.50 Z" fill="#DA291C" fill-rule="evenodd" stroke="none" /><path d="M 1097.00,1657.50 L 1088.00,1657.50 L 1084.50,1654.00 L 1075.50,1633.00 L 1070.00,1629.50 L 1065.50,1632.00 L 1065.50,1657.00 L 1056.00,1657.50 L 1051.50,1655.00 L 1052.00,1594.50 L 1055.00,1592.50 L 1085.00,1592.50 L 1096.50,1600.00 L 1099.50,1607.00 L 1099.50,1617.00 L 1095.50,1625.00 L 1087.50,1630.00 L 1099.50,1654.00 L 1097.00,1657.50 Z M 1080.00,1621.50 L 1065.50,1620.00 L 1066.00,1604.50 L 1085.50,1606.00 L 1087.50,1615.00 L 1080.00,1621.50 Z" fill="#DA291C" fill-rule="evenodd" stroke="none" /><path d="M 1229.00,1657.50 L 1220.00,1657.50 L 1215.50,1655.00 L 1205.50,1635.00 L 1194.00,1618.50 L 1193.50,1656.00 L 1184.00,1657.50 L 1179.50,1655.00 L 1180.00,1594.50 L 1183.00,1592.50 L 1192.50,1593.00 L 1216.00,1631.50 L 1216.50,1594.00 L 1229.50,1593.00 L 1229.00,1657.50 Z" fill="#DA291C" fill-rule="evenodd" stroke="none" /><path d="M 1366.00,1657.50 L 1353.50,1656.00 L 1353.00,1616.50 L 1342.00,1632.50 L 1335.00,1631.50 L 1326.00,1616.50 L 1325.50,1657.00 L 1311.50,1657.00 L 1311.50,1595.00 L 1314.00,1592.50 L 1325.00,1592.50 L 1339.00,1615.50 L 1354.00,1592.50 L 1364.00,1592.50 L 1366.50,1595.00 L 1366.00,1657.50 Z" fill="#DA291C" fill-rule="evenodd" stroke="none" /><path d="M 1394.00,1657.50 L 1384.50,1657.00 L 1384.50,1595.00 L 1387.00,1592.50 L 1397.50,1593.00 L 1397.50,1656.00 L 1394.00,1657.50 Z" fill="#DA291C" fill-rule="evenodd" stroke="none" /><path d="M 1469.00,1657.50 L 1456.00,1656.50 L 1452.00,1647.50 L 1430.00,1647.50 L 1425.00,1657.50 L 1412.50,1657.00 L 1432.00,1594.50 L 1447.00,1592.50 L 1449.50,1595.00 L 1462.50,1632.00 L 1461.50,1635.00 L 1465.50,1642.00 L 1465.50,1647.00 L 1469.50,1654.00 L 1469.00,1657.50 Z M 1449.00,1636.50 L 1432.50,1636.00 L 1438.50,1618.00 L 1438.50,1611.00 L 1441.00,1608.50 L 1445.50,1618.00 L 1447.50,1631.00 L 1449.50,1632.00 L 1449.00,1636.50 Z" fill="#DA291C" fill-rule="evenodd" stroke="none" /><path d="M 729.00,1636.50 L 724.50,1635.00 L 725.00,1626.50 L 735.00,1624.50 L 757.50,1626.00 L 757.00,1635.50 L 729.00,1636.50 Z" fill="#DA291C" fill-rule="evenodd" stroke="none" /></svg>